<?xml version="1.0" encoding="UTF-8"?>
<svg version="1.1" xmlns="http://www.w3.org/2000/svg" width="512" height="512">
<path d="M0 0 C1.81533013 -0.00701996 1.81533013 -0.00701996 3.6673336 -0.01418173 C7.00048121 -0.02402621 10.33311642 -0.02055295 13.66623211 -0.01122308 C17.2709339 -0.00440476 20.87559256 -0.01492754 24.48028564 -0.02316284 C31.53156068 -0.03647282 38.58273969 -0.03363468 45.63401842 -0.02492492 C51.36692115 -0.01813798 57.09979704 -0.01723601 62.83270264 -0.02049637 C63.64996744 -0.02095607 64.46723223 -0.02141577 65.30926263 -0.0218894 C66.96974199 -0.02284861 68.63022134 -0.02382125 70.29070067 -0.02480717 C85.84541069 -0.03335305 101.40006759 -0.02353953 116.9547689 -0.00740607 C130.2890457 0.00599638 143.62324414 0.00366807 156.95751953 -0.01016235 C172.45819449 -0.02623235 187.95882295 -0.03252915 203.45950508 -0.02332556 C205.11373011 -0.02236996 206.76795514 -0.02142685 208.42218018 -0.02049637 C209.64290964 -0.01980213 209.64290964 -0.01980213 210.8883003 -0.01909386 C216.61147836 -0.01650823 222.33462682 -0.02086575 228.05780029 -0.02793503 C235.03651037 -0.03636601 242.01511926 -0.03403638 248.99381781 -0.0180928 C252.55155089 -0.01023151 256.10911555 -0.00708164 259.66684723 -0.01704025 C263.52962012 -0.02768885 267.39211977 -0.01493747 271.25488281 0 C272.3706539 -0.00669217 273.48642498 -0.01338433 274.63600731 -0.02027929 C285.30224399 0.05958506 294.39731386 2.37236365 302.62744141 9.38095093 C310.96833108 17.98097504 313.158161 26.21751497 313.04296875 38.00424194 C312.66861532 48.42987006 309.40471971 55.65920208 302.13916016 63.21298218 C295.83817977 68.65161999 288.76244938 71.49878386 280.48076534 71.515172 C279.43456616 71.51962985 278.38836698 71.52408769 277.3104648 71.52868062 C276.16233499 71.52849626 275.01420519 71.5283119 273.83128357 71.52812195 C272.61056139 71.53179864 271.3898392 71.53547532 270.13212544 71.53926343 C266.74191389 71.54838338 263.35175073 71.55299845 259.96153152 71.55565274 C256.30558959 71.55955909 252.64966164 71.56913726 248.99372864 71.5778656 C240.16323373 71.59762151 231.33273769 71.6076955 222.5022262 71.61659339 C218.34203475 71.62097806 214.18184458 71.62634444 210.02165413 71.63158226 C196.18891254 71.64859431 182.35617173 71.66308769 168.52342129 71.670331 C164.93431535 71.67224085 161.34520943 71.67416118 157.75610352 71.67611694 C156.418048 71.67684255 156.418048 71.67684255 155.05296106 71.67758282 C140.60792026 71.68588017 126.16296235 71.7112122 111.71795773 71.74369762 C96.88184351 71.77679009 82.04577138 71.79478177 67.20962006 71.79797524 C58.8820237 71.8001384 50.55454819 71.80885854 42.22698784 71.83443642 C35.13360714 71.8561734 28.04037663 71.86417917 20.9469664 71.85446963 C17.33035752 71.84993345 13.71405836 71.85177086 10.09749222 71.87123108 C6.16902901 71.89218615 2.2409893 71.88184988 -1.68751526 71.86869812 C-3.38628739 71.88515199 -3.38628739 71.88515199 -5.11937815 71.90193826 C-16.42451758 71.81080399 -25.02581907 68.75937289 -33.20458984 60.89266968 C-41.28690444 51.52883493 -42.07230405 41.27686496 -41.55175781 29.4234314 C-40.80989985 20.96786772 -35.71699543 13.05829574 -29.33740234 7.65829468 C-20.25820111 1.14112554 -10.95948724 -0.06573275 0 0 Z " fill="#ffffff" transform="translate(120.37255859375,359.6190490722656)"/>
<path d="M0 0 C1.04619918 -0.00445784 2.09239836 -0.00891569 3.17030054 -0.01350862 C4.31843035 -0.01332426 5.46656016 -0.01313989 6.64948177 -0.01294994 C7.87020396 -0.01662663 9.09092614 -0.02030332 10.34863991 -0.02409142 C13.73885145 -0.03321137 17.12901462 -0.03782645 20.51923382 -0.04048073 C24.17517575 -0.04438709 27.83110371 -0.05396526 31.48703671 -0.0626936 C40.31753161 -0.08244951 49.14802766 -0.09252349 57.97853914 -0.10142139 C62.13873059 -0.10580606 66.29892077 -0.11117243 70.45911121 -0.11641026 C84.29185281 -0.1334223 98.12459361 -0.14791568 111.95734406 -0.155159 C115.54644999 -0.15706884 119.13555592 -0.15898918 122.72466183 -0.16094494 C124.06271734 -0.16167055 124.06271734 -0.16167055 125.42780428 -0.16241082 C139.87284508 -0.17070817 154.317803 -0.19604019 168.76280762 -0.22852562 C183.59892184 -0.26161808 198.43499397 -0.27960977 213.27114528 -0.28280324 C221.59874164 -0.2849664 229.92621716 -0.29368654 238.2537775 -0.31926441 C245.34715821 -0.34100139 252.44038871 -0.34900716 259.53379894 -0.33929763 C263.15040782 -0.33476145 266.76670699 -0.33659885 270.38327312 -0.35605907 C274.31173633 -0.37701415 278.23977604 -0.36667788 282.1682806 -0.35352612 C283.30079536 -0.36449536 284.43331011 -0.37546461 285.60014349 -0.38676625 C296.90528293 -0.29563198 305.50658441 2.75579912 313.68535519 10.62250233 C322.07799305 20.34586475 322.50055916 30.9086668 321.85332394 43.13422108 C320.43231441 51.56393861 315.6125494 59.25307028 308.91582394 64.50922108 C299.74512017 70.81517166 290.88042722 71.28293084 280.03098202 71.26793385 C278.83164117 71.2701994 277.63230032 71.27246496 276.3966158 71.27479917 C273.07546677 71.28002922 269.75437194 71.28078493 266.43322265 71.27960479 C262.84825146 71.2794005 259.26328831 71.28492231 255.67832088 71.28966236 C248.65761038 71.29796317 241.63690826 71.30071694 234.61619326 71.30127474 C228.90846001 71.30175017 223.20072954 71.30380627 217.49299717 71.30697536 C201.30480227 71.31578038 185.116614 71.32039498 168.92841669 71.31964489 C168.05599692 71.31960493 167.18357715 71.31956498 166.28472042 71.31952381 C165.41123348 71.31948293 164.53774654 71.31944205 163.6377903 71.31939993 C149.48254747 71.3189935 135.32733124 71.32856264 121.1720961 71.34266218 C106.63199123 71.35703061 92.09189934 71.3639321 77.5517872 71.3630684 C69.39088143 71.36273659 61.23000356 71.36547658 53.06910419 71.37624645 C46.12066992 71.3853576 39.17227619 71.38752165 32.22383853 71.38073703 C28.68046224 71.37747493 25.13716369 71.37740391 21.59379482 71.38609028 C17.74803294 71.39542078 13.90238422 71.38917113 10.05661678 71.38145924 C8.38617102 71.38917458 8.38617102 71.38917458 6.68197888 71.39704579 C-4.78530308 71.34625721 -14.26189689 69.42929754 -22.97089481 61.46625233 C-31.66680355 51.8941815 -32.86370553 41.68871654 -32.31269169 29.21527576 C-31.54126829 19.54525662 -26.33839447 12.34169186 -19.14667606 6.13422108 C-13.0006315 2.21982959 -7.29196443 0.01442964 0 0 Z " fill="#ffffff" transform="translate(111.1466760635376,80.86577892303467)"/>
<path d="M0 0 C1.24017637 -0.00453111 2.48035275 -0.00906223 3.75811023 -0.01373065 C7.19332652 -0.02419315 10.62833327 -0.02570182 14.06355059 -0.02334189 C17.7712336 -0.02293338 21.47888549 -0.03397615 25.18655396 -0.04345703 C32.44790287 -0.06006043 39.70921931 -0.06556628 46.97058562 -0.06668179 C52.87378386 -0.06763256 58.77697139 -0.07174432 64.68016624 -0.07808304 C81.42174045 -0.09569354 98.16328904 -0.10492219 114.90487257 -0.10342209 C116.25830716 -0.10330222 116.25830716 -0.10330222 117.63908386 -0.10317993 C118.54247695 -0.10309817 119.44587004 -0.10301641 120.37663867 -0.10293217 C135.01690377 -0.10211929 149.65706599 -0.12125787 164.29730133 -0.14945666 C179.33461709 -0.17819144 194.37188268 -0.19199664 209.4092266 -0.19026911 C217.84962191 -0.18960542 226.28990936 -0.19508852 234.73027992 -0.21662521 C241.91663541 -0.23484481 249.10283413 -0.23917798 256.28920273 -0.22560637 C259.95417641 -0.21908063 263.61884941 -0.21894491 267.2837944 -0.23631287 C271.26103108 -0.25496654 275.23782977 -0.24247867 279.21508789 -0.22705078 C280.36762788 -0.23733791 281.52016787 -0.24762503 282.70763332 -0.25822389 C289.629201 -0.19890276 294.74696297 0.86991313 300.79801941 4.26742554 C301.5959491 4.71344116 302.39387878 5.15945679 303.21598816 5.61898804 C310.7256847 11.02331711 314.70564468 18.33678977 316.79801941 27.26742554 C317.90133339 39.73743939 316.58656935 50.57264198 308.42301941 60.55258179 C302.01576053 67.31408816 294.26581328 70.32692528 285.00207615 70.64774227 C282.77409692 70.66541957 280.54595064 70.66683076 278.31793213 70.65510559 C277.08406515 70.66049113 275.85019817 70.66587667 274.57894129 70.6714254 C271.17513535 70.68321131 267.77182222 70.68165531 264.36803639 70.67425859 C260.68900951 70.66951358 257.0100343 70.68204848 253.33102417 70.692276 C246.13189581 70.709443 238.93285482 70.71030842 231.73371131 70.7050631 C225.88064634 70.70101643 220.02760713 70.70247084 214.17454338 70.70781136 C212.9234647 70.70893399 212.9234647 70.70893399 211.6471117 70.7100793 C209.95256881 70.71161083 208.25802593 70.71314917 206.56348305 70.71469427 C190.684494 70.72841159 174.80555427 70.72298691 158.92656635 70.71150906 C144.41002672 70.70157634 129.89361455 70.71451936 115.37709457 70.73844325 C100.45832439 70.76284417 85.53961354 70.77243975 70.6208238 70.76579052 C62.25031193 70.76230065 53.87989807 70.76451507 45.50940132 70.78204155 C38.38425661 70.7967759 31.25927894 70.79738285 24.13413746 70.77997064 C20.50142842 70.77146855 16.86901765 70.76929139 13.23632431 70.78462219 C9.29242764 70.80105985 5.34898928 70.78629864 1.40509033 70.76863098 C-0.30460801 70.78303849 -0.30460801 70.78303849 -2.04884571 70.79773706 C-11.73020469 70.70863306 -21.05811334 68.1486506 -28.20198059 61.26742554 C-36.73730225 50.94049154 -38.35039779 40.30002524 -37.20198059 27.26742554 C-34.91848889 16.7143396 -29.51432106 9.31057389 -20.54573059 3.49398804 C-13.73553818 -0.07001266 -7.53063944 -0.02012015 0 0 Z " fill="#ffffff" transform="translate(116.20198059082031,220.73257446289063)"/>
</svg>
